<svg width="32" height="32" viewBox="0 0 32 32" fill="none" xmlns="http://www.w3.org/2000/svg">
<rect width="32" height="32" fill="black"/>
<circle cx="16" cy="16" r="15" fill="black" stroke="white" stroke-width="2"/>
<circle cx="16" cy="16" r="12" fill="white"/>
<path fill-rule="evenodd" clip-rule="evenodd" d="M18.0833 10.1666C18.0833 11.0375 17.3708 11.75 16.5 11.75C15.6292 11.75 14.9167 11.0375 14.9167 10.1666C14.9167 9.29581 15.6292 8.58331 16.5 8.58331C17.3708 8.58331 18.0833 9.29581 18.0833 10.1666ZM16.5 12.5416C18.7404 12.5416 21.1629 12.3041 23.2292 11.75L23.625 13.3333C22.1525 13.7291 20.4583 13.9904 18.875 14.125V24.4166H17.2917V19.6666H15.7083V24.4166H14.125V14.125C12.5417 13.9904 10.8475 13.7291 9.375 13.3333L9.77083 11.75C11.8371 12.3041 14.2596 12.5416 16.5 12.5416Z" fill="black"/>
</svg>
